Perun-Regular.ufo
<glyph name="quotesingle" format="2">
  <advance width="226"/>
  <unicode hex="0027"/>
  <outline>
    <contour>
      <point x="73" y="434" type="line"/>
      <point x="50" y="722" type="line"/>
      <point x="156" y="722" type="line"/>
      <point x="133" y="434" type="line"/>
    </contour>
  </outline>
</glyph>
<glyph name="parenright" format="2">
  <advance width="359"/>
  <unicode hex="0029"/>
  <outline>
    <contour>
      <point x="92" y="-130" type="line"/>
      <point x="147" y="26"/>
      <point x="174" y="171"/>
      <point x="174" y="306" type="curve" smooth="yes"/>
      <point x="174" y="440"/>
      <point x="147" y="585"/>
      <point x="92" y="738" type="curve"/>
      <point x="156" y="738" type="line"/>
      <point x="231" y="601"/>
      <point x="269" y="456"/>
      <point x="269" y="303" type="curve" smooth="yes"/>
      <point x="269" y="151"/>
      <point x="231" y="7"/>
      <point x="156" y="-130" type="curve"/>
    </contour>
  </outline>
</glyph>
<glyph name="comma" format="2">
  <advance width="275"/>
  <unicode hex="002C"/>
  <outline>
    <contour>
      <point x="48" y="-127" type="line"/>
      <point x="108" y="123" type="line"/>
      <point x="228" y="123" type="line"/>
      <point x="118" y="-127" type="line"/>
    </contour>
  </outline>
</glyph>
<glyph name="hyphen" format="2">
  <advance width="319"/>
  <unicode hex="002D"/>
  <outline>
    <contour>
      <point x="40" y="203" type="line"/>
      <point x="40" y="285" type="line"/>
      <point x="280" y="285" type="line"/>
      <point x="280" y="203" type="line"/>
    </contour>
  </outline>
</glyph>
<glyph name="slash" format="2">
  <advance width="396"/>
  <unicode hex="002F"/>
  <outline>
    <contour>
      <point x="46" y="-52" type="line"/>
      <point x="282" y="736" type="line"/>
      <point x="351" y="736" type="line"/>
      <point x="115" y="-52" type="line"/>
    </contour>
  </outline>
</glyph>
<glyph name="three" format="2">
  <advance width="558"/>
  <unicode hex="0033"/>
  <outline>
    <contour>
      <point x="279" y="736" type="curve" smooth="yes"/>
      <point x="402" y="736"/>
      <point x="501" y="664"/>
      <point x="501" y="547" type="curve" smooth="yes"/>
      <point x="501" y="462"/>
      <point x="449" y="402"/>
      <point x="371" y="379" type="curve"/>
      <point x="451" y="358"/>
      <point x="513" y="305"/>
      <point x="513" y="203" type="curve" smooth="yes"/>
      <point x="513" y="68"/>
      <point x="405" y="-14"/>
      <point x="272" y="-14" type="curve" smooth="yes"/>
      <point x="143" y="-14"/>
      <point x="46" y="64"/>
      <point x="46" y="190" type="curve"/>
      <point x="70.6434" y="190"/>
      <point x="134.078" y="190"/>
      <point x="152" y="190" type="curve"/>
      <point x="152" y="105"/>
      <point x="202" y="63"/>
      <point x="279" y="63" type="curve" smooth="yes"/>
      <point x="344" y="63"/>
      <point x="413" y="120"/>
      <point x="413" y="185" type="curve" smooth="yes"/>
      <point x="413" y="286"/>
      <point x="349" y="336"/>
      <point x="219" y="336" type="curve" smooth="yes"/>
      <point x="211" y="336" type="line"/>
      <point x="211" y="416" type="line"/>
      <point x="212.659" y="416"/>
      <point x="218.08" y="416"/>
      <point x="220" y="416" type="curve"/>
      <point x="328" y="416"/>
      <point x="401" y="449"/>
      <point x="401" y="543" type="curve" smooth="yes"/>
      <point x="401" y="624"/>
      <point x="349" y="659"/>
      <point x="288" y="659" type="curve" smooth="yes"/>
      <point x="219" y="659"/>
      <point x="177" y="616"/>
      <point x="162" y="532" type="curve"/>
      <point x="143.319" y="532"/>
      <point x="81.0749" y="532"/>
      <point x="61" y="532" type="curve"/>
      <point x="78" y="655"/>
      <point x="148" y="736"/>
    </contour>
  </outline>
</glyph>
<glyph name="four" format="2">
  <advance width="558"/>
  <unicode hex="0034"/>
  <outline>
    <contour>
      <point x="110" y="259" type="line"/>
      <point x="347" y="259" type="line"/>
      <point x="347" y="612" type="line"/>
    </contour>
    <contour>
      <point x="30" y="176" type="line"/>
      <point x="30" y="281" type="line"/>
      <point x="330" y="722" type="line"/>
      <point x="440" y="722" type="line"/>
      <point x="440" y="259" type="line"/>
      <point x="529" y="259" type="line"/>
      <point x="529" y="176" type="line"/>
      <point x="440" y="176" type="line"/>
      <point x="440" y="0" type="line"/>
      <point x="347" y="0" type="line"/>
      <point x="347" y="176" type="line"/>
    </contour>
  </outline>
</glyph>
<glyph name="five" format="2">
  <advance width="558"/>
  <unicode hex="0035"/>
  <outline>
    <contour>
      <point x="158" y="176" type="curve"/>
      <point x="158" y="104"/>
      <point x="207" y="67"/>
      <point x="279" y="67" type="curve" smooth="yes"/>
      <point x="359" y="67"/>
      <point x="405" y="147"/>
      <point x="405" y="235" type="curve" smooth="yes"/>
      <point x="405" y="349"/>
      <point x="366" y="406"/>
      <point x="289" y="406" type="curve" smooth="yes"/>
      <point x="229" y="406"/>
      <point x="185" y="371"/>
      <point x="154" y="302" type="curve"/>
      <point x="139.249" y="302"/>
      <point x="92.269" y="302"/>
      <point x="77" y="302" type="curve"/>
      <point x="77" y="385.39"/>
      <point x="77" y="644.295"/>
      <point x="77" y="722" type="curve"/>
      <point x="163.345" y="722"/>
      <point x="389.645" y="722"/>
      <point x="460" y="722" type="curve"/>
      <point x="460" y="705.9"/>
      <point x="460" y="652.785"/>
      <point x="460" y="639" type="curve"/>
      <point x="175" y="639" type="line"/>
      <point x="175" y="412" type="line"/>
      <point x="206" y="447"/>
      <point x="248" y="480"/>
      <point x="323" y="480" type="curve" smooth="yes"/>
      <point x="436" y="480"/>
      <point x="506" y="406"/>
      <point x="506" y="257" type="curve" smooth="yes"/>
      <point x="506" y="107"/>
      <point x="403" y="-13"/>
      <point x="290" y="-13" type="curve" smooth="yes"/>
      <point x="155" y="-13"/>
      <point x="53" y="47"/>
      <point x="53" y="176" type="curve"/>
      <point x="67.7736" y="176"/>
      <point x="136.77" y="176"/>
    </contour>
  </outline>
</glyph>
<glyph name="seven" format="2">
  <advance width="558"/>
  <unicode hex="0037"/>
  <outline>
    <contour>
      <point x="157" y="0" type="line"/>
      <point x="412" y="642" type="line"/>
      <point x="57" y="642" type="line"/>
      <point x="57" y="722" type="line"/>
      <point x="502" y="722" type="line"/>
      <point x="502" y="622" type="line"/>
      <point x="267" y="0" type="line"/>
    </contour>
  </outline>
</glyph>
<glyph name="A" format="2">
  <advance width="750"/>
  <unicode hex="0041"/>
  <anchor x="375" y="-75" name="bottom"/>
  <anchor x="662" y="10" name="ogonekUC"/>
  <anchor x="375" y="797" name="top"/>
  <outline>
    <contour>
      <point x="236" y="278" type="line"/>
      <point x="509" y="278" type="line"/>
      <point x="371" y="611" type="line"/>
    </contour>
    <contour>
      <point x="15" y="0" type="line"/>
      <point x="318" y="722" type="line"/>
      <point x="428" y="722" type="line"/>
      <point x="735" y="0" type="line"/>
      <point x="629" y="0" type="line"/>
      <point x="551" y="193" type="line"/>
      <point x="197" y="193" type="line"/>
      <point x="118" y="0" type="line"/>
    </contour>
  </outline>
</glyph>
<glyph name="B" format="2">
  <advance width="643"/>
  <unicode hex="0042"/>
  <anchor x="276" y="797" name="top"/>
  <outline>
    <contour>
      <point x="160" y="87" type="line"/>
      <point x="318" y="87" type="line" smooth="yes"/>
      <point x="424" y="87"/>
      <point x="496" y="140"/>
      <point x="496" y="219" type="curve" smooth="yes"/>
      <point x="496" y="295"/>
      <point x="431" y="337"/>
      <point x="313" y="337" type="curve" smooth="yes"/>
      <point x="160" y="337" type="line"/>
    </contour>
    <contour>
      <point x="160" y="420" type="line"/>
      <point x="306" y="420" type="line" smooth="yes"/>
      <point x="419" y="420"/>
      <point x="474" y="455"/>
      <point x="474" y="528" type="curve" smooth="yes"/>
      <point x="474" y="599"/>
      <point x="423" y="635"/>
      <point x="320" y="635" type="curve" smooth="yes"/>
      <point x="160" y="635" type="line"/>
    </contour>
    <contour>
      <point x="60" y="0" type="line"/>
      <point x="60" y="722" type="line"/>
      <point x="350" y="722" type="line" smooth="yes"/>
      <point x="483" y="722"/>
      <point x="567" y="653"/>
      <point x="567" y="542" type="curve" smooth="yes"/>
      <point x="567" y="464"/>
      <point x="526" y="413"/>
      <point x="444" y="390" type="curve"/>
      <point x="444" y="385" type="line"/>
      <point x="536" y="364"/>
      <point x="593" y="296"/>
      <point x="593" y="208" type="curve" smooth="yes"/>
      <point x="593" y="92"/>
      <point x="497" y="0"/>
      <point x="376" y="0" type="curve" smooth="yes"/>
    </contour>
  </outline>
</glyph>
<glyph name="C" format="2">
  <advance width="660"/>
  <unicode hex="0043"/>
  <anchor x="357" y="10" name="bottom"/>
  <anchor x="335" y="797" name="top"/>
  <outline>
    <contour>
      <point x="50" y="355" type="curve" smooth="yes"/>
      <point x="50" y="603"/>
      <point x="157" y="736"/>
      <point x="357" y="736" type="curve" smooth="yes"/>
      <point x="511" y="736"/>
      <point x="606" y="657"/>
      <point x="606" y="527" type="curve"/>
      <point x="505" y="527" type="line"/>
      <point x="505" y="605"/>
      <point x="445" y="655"/>
      <point x="351" y="655" type="curve" smooth="yes"/>
      <point x="216" y="655"/>
      <point x="151" y="554"/>
      <point x="151" y="352" type="curve" smooth="yes"/>
      <point x="151" y="154"/>
      <point x="214" y="67"/>
      <point x="356" y="67" type="curve" smooth="yes"/>
      <point x="444" y="67"/>
      <point x="509" y="122"/>
      <point x="509" y="195" type="curve"/>
      <point x="610" y="195" type="line"/>
      <point x="610" y="64"/>
      <point x="518" y="-14"/>
      <point x="357" y="-14" type="curve" smooth="yes"/>
      <point x="155" y="-14"/>
      <point x="50" y="110"/>
    </contour>
  </outline>
</glyph>
<glyph name="J" format="2">
  <advance width="539"/>
  <unicode hex="004A"/>
  <anchor x="424" y="797" name="top"/>
  <outline>
    <contour>
      <point x="50" y="194" type="curve"/>
      <point x="150" y="194" type="line"/>
      <point x="150" y="114"/>
      <point x="191" y="74"/>
      <point x="257" y="74" type="curve" smooth="yes"/>
      <point x="338" y="74"/>
      <point x="379" y="135"/>
      <point x="379" y="215" type="curve" smooth="yes"/>
      <point x="379" y="722" type="line"/>
      <point x="479" y="722" type="line"/>
      <point x="479" y="215" type="line" smooth="yes"/>
      <point x="479" y="81"/>
      <point x="391" y="-14"/>
      <point x="261" y="-14" type="curve" smooth="yes"/>
      <point x="137" y="-14"/>
      <point x="50" y="72"/>
    </contour>
  </outline>
</glyph>
<glyph name="O" format="2">
  <advance width="754"/>
  <unicode hex="004F"/>
  <anchor x="365" y="797" name="top"/>
  <outline>
    <contour>
      <point x="50" y="361" type="curve" smooth="yes"/>
      <point x="50" y="579"/>
      <point x="160" y="734"/>
      <point x="378" y="734" type="curve"/>
      <point x="378" y="646" type="line"/>
      <point x="218" y="646"/>
      <point x="153" y="541"/>
      <point x="153" y="361" type="curve" smooth="yes"/>
      <point x="153" y="181"/>
      <point x="218" y="76"/>
      <point x="378" y="76" type="curve"/>
      <point x="378" y="-12" type="line"/>
      <point x="160" y="-12"/>
      <point x="50" y="143"/>
    </contour>
    <contour>
      <point x="706" y="361" type="curve" smooth="yes"/>
      <point x="706" y="143"/>
      <point x="596" y="-12"/>
      <point x="378" y="-12" type="curve"/>
      <point x="378" y="76" type="line"/>
      <point x="538" y="76"/>
      <point x="603" y="181"/>
      <point x="603" y="361" type="curve" smooth="yes"/>
      <point x="603" y="541"/>
      <point x="538" y="646"/>
      <point x="378" y="646" type="curve"/>
      <point x="378" y="734" type="line"/>
      <point x="596" y="734"/>
      <point x="706" y="579"/>
    </contour>
  </outline>
</glyph>
<glyph name="P" format="2">
  <advance width="593"/>
  <unicode hex="0050"/>
  <anchor x="235" y="797" name="top"/>
  <outline>
    <contour>
      <point x="160" y="394" type="line"/>
      <point x="267" y="394" type="line" smooth="yes"/>
      <point x="376" y="394"/>
      <point x="446" y="414"/>
      <point x="446" y="513" type="curve" smooth="yes"/>
      <point x="446" y="612"/>
      <point x="375" y="635"/>
      <point x="267" y="635" type="curve" smooth="yes"/>
      <point x="160" y="635" type="line"/>
    </contour>
    <contour>
      <point x="60" y="0" type="line"/>
      <point x="60" y="722" type="line"/>
      <point x="264" y="722" type="line" smooth="yes"/>
      <point x="428" y="722"/>
      <point x="543" y="680"/>
      <point x="543" y="514" type="curve" smooth="yes"/>
      <point x="543" y="348"/>
      <point x="428" y="306"/>
      <point x="264" y="306" type="curve" smooth="yes"/>
      <point x="160" y="306" type="line"/>
      <point x="160" y="0" type="line"/>
    </contour>
  </outline>
</glyph>
<glyph name="Q" format="2">
  <advance width="805"/>
  <unicode hex="0051"/>
  <anchor x="375" y="797" name="top"/>
  <outline>
    <contour>
      <point x="151" y="371" type="curve" smooth="yes"/>
      <point x="151" y="183"/>
      <point x="235" y="74"/>
      <point x="378" y="74" type="curve" smooth="yes"/>
      <point x="519" y="74"/>
      <point x="599" y="181"/>
      <point x="599" y="370" type="curve" smooth="yes"/>
      <point x="599" y="553"/>
      <point x="523" y="648"/>
      <point x="376" y="648" type="curve" smooth="yes"/>
      <point x="229" y="648"/>
      <point x="151" y="551"/>
    </contour>
    <contour>
      <point x="49" y="371" type="curve" smooth="yes"/>
      <point x="49" y="591"/>
      <point x="182" y="736"/>
      <point x="378" y="736" type="curve" smooth="yes"/>
      <point x="573" y="736"/>
      <point x="704" y="592"/>
      <point x="704" y="384" type="curve" smooth="yes"/>
      <point x="704" y="263"/>
      <point x="660" y="140"/>
      <point x="593" y="72" type="curve"/>
      <point x="619" y="79"/>
      <point x="712" y="88"/>
      <point x="755" y="88" type="curve"/>
      <point x="755" y="0" type="line"/>
      <point x="576" y="0" type="line" smooth="yes"/>
      <point x="556" y="0"/>
      <point x="496" y="-2"/>
      <point x="472" y="-7" type="curve" smooth="yes"/>
      <point x="467" y="-8" type="line"/>
      <point x="454" y="-11"/>
      <point x="422" y="-14"/>
      <point x="394" y="-14" type="curve" smooth="yes"/>
      <point x="188" y="-14"/>
      <point x="49" y="146"/>
    </contour>
  </outline>
</glyph>
<glyph name="V" format="2">
  <advance width="654"/>
  <unicode hex="0056"/>
  <anchor x="375" y="797" name="top"/>
  <outline>
    <contour>
      <point x="639" y="722" type="line"/>
      <point x="382" y="0" type="line"/>
      <point x="272" y="0" type="line"/>
      <point x="15" y="722" type="line"/>
      <point x="128" y="722" type="line"/>
      <point x="327" y="130" type="line"/>
      <point x="526" y="722" type="line"/>
    </contour>
  </outline>
</glyph>
<glyph name="Z" format="2">
  <advance width="626"/>
  <unicode hex="005A"/>
  <anchor x="315" y="797" name="top"/>
  <outline>
    <contour>
      <point x="576" y="0" type="line"/>
      <point x="50" y="0" type="line"/>
      <point x="50" y="110" type="line"/>
      <point x="456" y="635" type="line"/>
      <point x="70" y="635" type="line"/>
      <point x="70" y="722" type="line"/>
      <point x="566" y="722" type="line"/>
      <point x="566" y="612" type="line"/>
      <point x="160" y="87" type="line"/>
      <point x="576" y="87" type="line"/>
    </contour>
  </outline>
</glyph>
<glyph name="bracketleft" format="2">
  <advance width="396"/>
  <unicode hex="005B"/>
  <outline>
    <contour>
      <point x="292" y="-198" type="line"/>
      <point x="106" y="-198" type="line"/>
      <point x="106" y="722" type="line"/>
      <point x="292" y="722" type="line"/>
      <point x="292" y="671" type="line"/>
      <point x="192" y="671" type="line"/>
      <point x="192" y="-147" type="line"/>
      <point x="292" y="-147" type="line"/>
    </contour>
  </outline>
</glyph>
<glyph name="backslash" format="2">
  <advance width="396"/>
  <unicode hex="005C"/>
  <outline>
    <contour>
      <point x="351" y="-52" type="line"/>
      <point x="282" y="-52" type="line"/>
      <point x="46" y="736" type="line"/>
      <point x="115" y="736" type="line"/>
    </contour>
  </outline>
</glyph>
<glyph name="e" format="2">
  <advance width="575"/>
  <unicode hex="0065"/>
  <anchor x="284" y="580" name="top"/>
  <outline>
    <contour>
      <point x="60" y="250" type="curve" smooth="yes"/>
      <point x="60" y="405"/>
      <point x="134" y="512"/>
      <point x="291" y="512" type="curve" smooth="yes"/>
      <point x="434" y="512"/>
      <point x="514" y="423"/>
      <point x="514" y="282" type="curve" smooth="yes"/>
      <point x="514" y="236" type="line"/>
      <point x="154" y="236" type="line"/>
      <point x="154" y="134"/>
      <point x="204" y="51"/>
      <point x="299" y="51" type="curve" smooth="yes"/>
      <point x="370" y="51"/>
      <point x="413" y="98"/>
      <point x="419" y="160" type="curve"/>
      <point x="515" y="160" type="line"/>
      <point x="495" y="55"/>
      <point x="418" y="-14"/>
      <point x="291" y="-14" type="curve" smooth="yes"/>
      <point x="128" y="-14"/>
      <point x="60" y="102"/>
    </contour>
    <contour>
      <point x="154" y="301" type="curve"/>
      <point x="420" y="301" type="line"/>
      <point x="420" y="361"/>
      <point x="395" y="447"/>
      <point x="291" y="447" type="curve" smooth="yes"/>
      <point x="213" y="447"/>
      <point x="154" y="399"/>
    </contour>
  </outline>
</glyph>
<glyph name="i" format="2">
  <advance width="266"/>
  <unicode hex="0069"/>
  <outline>
    <contour>
      <point x="88" y="0" type="line"/>
      <point x="88" y="500" type="line"/>
      <point x="178" y="500" type="line"/>
      <point x="178" y="0" type="line"/>
    </contour>
    <contour>
      <point x="80" y="630" type="line"/>
      <point x="80" y="722" type="line"/>
      <point x="186" y="722" type="line"/>
      <point x="186" y="630" type="line"/>
    </contour>
  </outline>
</glyph>
<glyph name="j" format="2">
  <advance width="275"/>
  <unicode hex="006A"/>
  <outline>
    <contour>
      <point x="40" y="-200" type="line"/>
      <point x="40" y="-134" type="line"/>
      <point x="65" y="-134" type="line" smooth="yes"/>
      <point x="95" y="-134"/>
      <point x="96" y="-91"/>
      <point x="96" y="-44" type="curve" smooth="yes"/>
      <point x="96" y="500" type="line"/>
      <point x="186" y="500" type="line"/>
      <point x="186" y="-74" type="line" smooth="yes"/>
      <point x="186" y="-161"/>
      <point x="135" y="-200"/>
      <point x="65" y="-200" type="curve" smooth="yes"/>
    </contour>
    <contour>
      <point x="89" y="630" type="line"/>
      <point x="89" y="722" type="line"/>
      <point x="195" y="722" type="line"/>
      <point x="195" y="630" type="line"/>
    </contour>
  </outline>
</glyph>
<glyph name="k" format="2">
  <advance width="509"/>
  <unicode hex="006B"/>
  <anchor x="266" y="762" name="top"/>
  <outline>
    <contour>
      <point x="489" y="0" type="line"/>
      <point x="370" y="0" type="line"/>
      <point x="170" y="267" type="line"/>
      <point x="170" y="0" type="line"/>
      <point x="80" y="0" type="line"/>
      <point x="80" y="722" type="line"/>
      <point x="170" y="722" type="line"/>
      <point x="170" y="292" type="line"/>
      <point x="360" y="500" type="line"/>
      <point x="473" y="500" type="line"/>
      <point x="273" y="282" type="line"/>
    </contour>
  </outline>
</glyph>
<glyph name="braceleft" format="2">
  <advance width="487"/>
  <unicode hex="007B"/>
  <outline>
    <contour>
      <point x="408" y="-240" type="curve"/>
      <point x="233" y="-240"/>
      <point x="194" y="-172"/>
      <point x="194" y="-42" type="curve" smooth="yes"/>
      <point x="194" y="-16"/>
      <point x="200" y="44"/>
      <point x="200" y="70" type="curve" smooth="yes"/>
      <point x="200" y="146"/>
      <point x="176" y="205"/>
      <point x="80" y="224" type="curve"/>
      <point x="80" y="238.826"/>
      <point x="80" y="279.752"/>
      <point x="80" y="296" type="curve"/>
      <point x="182" y="320"/>
      <point x="200" y="380"/>
      <point x="200" y="450" type="curve" smooth="yes"/>
      <point x="200" y="491"/>
      <point x="194" y="524"/>
      <point x="194" y="559" type="curve" smooth="yes"/>
      <point x="194" y="693"/>
      <point x="237" y="760"/>
      <point x="408" y="760" type="curve"/>
      <point x="408" y="744.979"/>
      <point x="408" y="702.948"/>
      <point x="408" y="686" type="curve"/>
      <point x="318" y="686"/>
      <point x="286" y="641"/>
      <point x="286" y="559" type="curve" smooth="yes"/>
      <point x="286" y="524"/>
      <point x="292" y="490"/>
      <point x="292" y="450" type="curve" smooth="yes"/>
      <point x="292" y="358"/>
      <point x="260" y="316"/>
      <point x="204" y="260" type="curve"/>
      <point x="260" y="229"/>
      <point x="292" y="150"/>
      <point x="292" y="47" type="curve" smooth="yes"/>
      <point x="292" y="19"/>
      <point x="286" y="-13"/>
      <point x="286" y="-46" type="curve" smooth="yes"/>
      <point x="286" y="-123"/>
      <point x="319" y="-166"/>
      <point x="408" y="-166" type="curve"/>
      <point x="408" y="-185.239"/>
      <point x="408" y="-233.482"/>
    </contour>
  </outline>
</glyph>
<glyph name="sterling" format="2">
  <advance width="558"/>
  <unicode hex="00A3"/>
  <outline>
    <contour>
      <point x="113" y="539" type="line" smooth="yes"/>
      <point x="113" y="673"/>
      <point x="224" y="736"/>
      <point x="328" y="736" type="curve" smooth="yes"/>
      <point x="432" y="736"/>
      <point x="543" y="677"/>
      <point x="543" y="579" type="curve"/>
      <point x="454" y="579" type="line"/>
      <point x="454" y="637"/>
      <point x="387" y="672"/>
      <point x="328" y="672" type="curve" smooth="yes"/>
      <point x="268" y="672"/>
      <point x="202" y="634"/>
      <point x="202" y="539" type="curve" smooth="yes"/>
      <point x="202" y="456" type="line"/>
      <point x="367" y="456" type="line"/>
      <point x="367" y="392" type="line"/>
      <point x="202" y="392" type="line"/>
      <point x="202" y="64" type="line"/>
      <point x="523" y="64" type="line"/>
      <point x="523" y="0" type="line"/>
      <point x="44" y="0" type="line"/>
      <point x="44" y="64" type="line"/>
      <point x="113" y="64" type="line"/>
      <point x="113" y="392" type="line"/>
      <point x="44" y="392" type="line"/>
      <point x="44" y="456" type="line"/>
      <point x="113" y="456" type="line"/>
    </contour>
  </outline>
</glyph>
<glyph name="uni00AD" format="2">
  <advance width="310"/>
  <unicode hex="00AD"/>
  <outline>
    <contour>
      <point x="270" y="267" type="line"/>
      <point x="40" y="267" type="line"/>
      <point x="40" y="331" type="line"/>
      <point x="270" y="331" type="line"/>
    </contour>
  </outline>
</glyph>
<glyph name="ordmasculine" format="2">
  <advance width="418"/>
  <unicode hex="00BA"/>
  <outline>
    <contour>
      <point x="35" y="525" type="curve" smooth="yes"/>
      <point x="35" y="637"/>
      <point x="100" y="710"/>
      <point x="207" y="710" type="curve" smooth="yes"/>
      <point x="314" y="710"/>
      <point x="379" y="638"/>
      <point x="379" y="526" type="curve" smooth="yes"/>
      <point x="379" y="414"/>
      <point x="314" y="341"/>
      <point x="207" y="341" type="curve" smooth="yes"/>
      <point x="100" y="341"/>
      <point x="35" y="414"/>
    </contour>
    <contour>
      <point x="100" y="525" type="curve" smooth="yes"/>
      <point x="100" y="453"/>
      <point x="135" y="386"/>
      <point x="207" y="386" type="curve" smooth="yes"/>
      <point x="279" y="386"/>
      <point x="312" y="453"/>
      <point x="312" y="525" type="curve" smooth="yes"/>
      <point x="312" y="596"/>
      <point x="277" y="664"/>
      <point x="206" y="664" type="curve" smooth="yes"/>
      <point x="135" y="664"/>
      <point x="100" y="596"/>
    </contour>
    <contour>
      <point x="33" y="242" type="line"/>
      <point x="33" y="279" type="line"/>
      <point x="386" y="279" type="line"/>
      <point x="386" y="242" type="line"/>
    </contour>
  </outline>
</glyph>
<glyph name="Odieresis" format="2">
  <advance width="754"/>
  <unicode hex="00D6"/>
  <anchor x="365" y="797" name="top"/>
  <anchor x="368" y="972" name="top.mkmk"/>
  <outline>
    <contour>
      <point x="50" y="372" type="curve" smooth="yes"/>
      <point x="50" y="589"/>
      <point x="163" y="736"/>
      <point x="378" y="736" type="curve" smooth="yes"/>
      <point x="592" y="736"/>
      <point x="704" y="589"/>
      <point x="704" y="372" type="curve" smooth="yes"/>
      <point x="704" y="157"/>
      <point x="595" y="-14"/>
      <point x="378" y="-14" type="curve" smooth="yes"/>
      <point x="160" y="-14"/>
      <point x="50" y="158"/>
    </contour>
    <contour>
      <point x="153" y="371" type="curve" smooth="yes"/>
      <point x="153" y="208"/>
      <point x="210" y="74"/>
      <point x="378" y="74" type="curve" smooth="yes"/>
      <point x="546" y="74"/>
      <point x="601" y="207"/>
      <point x="601" y="372" type="curve" smooth="yes"/>
      <point x="601" y="540"/>
      <point x="544" y="649"/>
      <point x="378" y="649" type="curve" smooth="yes"/>
      <point x="228" y="649"/>
      <point x="153" y="558"/>
    </contour>
    <contour>
      <point x="513" y="797" type="line"/>
      <point x="423" y="797" type="line"/>
      <point x="423" y="897" type="line"/>
      <point x="513" y="897" type="line"/>
    </contour>
    <contour>
      <point x="313" y="797" type="line"/>
      <point x="223" y="797" type="line"/>
      <point x="223" y="897" type="line"/>
      <point x="313" y="897" type="line"/>
    </contour>
  </outline>
</glyph>
<glyph name="Hbar" format="2">
  <advance width="669"/>
  <unicode hex="0126"/>
  <outline>
    <component base="H" xOffset="-10"/>
    <contour>
      <point x="15" y="516" type="line"/>
      <point x="654" y="516" type="line"/>
      <point x="654" y="581" type="line"/>
      <point x="15" y="581" type="line"/>
    </contour>
  </outline>
</glyph>
<glyph name="hbar" format="2">
  <advance width="583"/>
  <unicode hex="0127"/>
  <outline>
    <component base="h"/>
    <contour>
      <point x="-31" y="620" type="line"/>
      <point x="-31" y="565" type="line"/>
      <point x="334" y="565" type="line"/>
      <point x="334" y="620" type="line"/>
    </contour>
  </outline>
</glyph>
<glyph name="eng" format="2">
  <advance width="595"/>
  <unicode hex="014B"/>
  <outline>
    <component base="n"/>
    <contour>
      <point x="231.761" y="-143" type="curve"/>
      <point x="288.537" y="-86" type="line"/>
      <point x="309.455" y="-115"/>
      <point x="334.357" y="-130"/>
      <point x="363.243" y="-130" type="curve" smooth="yes"/>
      <point x="400.098" y="-130"/>
      <point x="425" y="-101"/>
      <point x="425" y="-62" type="curve" smooth="yes"/>
      <point x="425" y="50" type="line"/>
      <point x="515" y="50" type="line"/>
      <point x="515" y="-62" type="line" smooth="yes"/>
      <point x="515" y="-146"/>
      <point x="455.337" y="-200"/>
      <point x="369.22" y="-200" type="curve" smooth="yes"/>
      <point x="312.443" y="-200"/>
      <point x="266.624" y="-181"/>
    </contour>
  </outline>
</glyph>
<glyph name="Tbar" format="2">
  <advance width="622"/>
  <unicode hex="0166"/>
  <outline>
    <component base="T"/>
    <contour>
      <point x="158" y="298" type="line"/>
      <point x="458" y="298" type="line"/>
      <point x="458" y="363" type="line"/>
      <point x="158" y="363" type="line"/>
    </contour>
  </outline>
</glyph>
<glyph name="florin" format="2">
  <advance width="503"/>
  <unicode hex="0192"/>
  <outline>
    <contour>
      <point x="109" y="-3" type="curve" smooth="yes"/>
      <point x="227" y="435" type="line"/>
      <point x="127" y="435" type="line"/>
      <point x="144" y="500" type="line"/>
      <point x="244" y="500" type="line"/>
      <point x="285" y="644.088"/>
      <point x="309" y="732"/>
      <point x="454" y="732" type="curve" smooth="yes"/>
      <point x="477.704" y="732"/>
      <point x="500.47" y="729.856"/>
      <point x="523" y="721.863" type="curve"/>
      <point x="501" y="646.076" type="line"/>
      <point x="488" y="654.025"/>
      <point x="470" y="658"/>
      <point x="447" y="658" type="curve" smooth="yes"/>
      <point x="385" y="658"/>
      <point x="363" y="626.201"/>
      <point x="333" y="499" type="curve"/>
      <point x="453" y="499" type="line"/>
      <point x="436" y="434" type="line"/>
      <point x="316" y="434" type="line"/>
      <point x="198" y="-4" type="line" smooth="yes"/>
      <point x="155" y="-163"/>
      <point x="103" y="-212"/>
      <point x="-20" y="-212" type="curve" smooth="yes"/>
      <point x="-39" y="-212"/>
      <point x="-57" y="-208"/>
      <point x="-73" y="-199" type="curve"/>
      <point x="-53" y="-124" type="line"/>
      <point x="-44" y="-133"/>
      <point x="-31" y="-138"/>
      <point x="-8.23377" y="-138" type="curve" smooth="yes"/>
      <point x="52" y="-138"/>
      <point x="82" y="-103"/>
    </contour>
  </outline>
</glyph>
<glyph name="uni019E" format="2">
  <advance width="608"/>
  <unicode hex="019E"/>
  <outline>
    <contour>
      <point x="80" y="0" type="line"/>
      <point x="80" y="500" type="line"/>
      <point x="170" y="500" type="line"/>
      <point x="170" y="435" type="line"/>
      <point x="204" y="483"/>
      <point x="263" y="512"/>
      <point x="327" y="512" type="curve" smooth="yes"/>
      <point x="452" y="512"/>
      <point x="515" y="451"/>
      <point x="515" y="328" type="curve" smooth="yes"/>
      <point x="515" y="-200" type="line"/>
      <point x="425" y="-200" type="line"/>
      <point x="425" y="310" type="line" smooth="yes"/>
      <point x="425" y="408"/>
      <point x="387" y="452"/>
      <point x="302" y="452" type="curve" smooth="yes"/>
      <point x="227" y="452"/>
      <point x="170" y="395"/>
      <point x="170" y="322" type="curve" smooth="yes"/>
      <point x="170" y="0" type="line"/>
    </contour>
  </outline>
</glyph>
<glyph name="uni01DE" format="2">
  <advance width="750"/>
  <unicode hex="01DE"/>
  <anchor x="375" y="-75" name="bottom"/>
  <anchor x="662" y="10" name="ogonekUC"/>
  <anchor x="375" y="797" name="top"/>
  <anchor x="379" y="1112" name="top.mkmk"/>
  <outline>
    <contour>
      <point x="236" y="278" type="line"/>
      <point x="509" y="278" type="line"/>
      <point x="371" y="611" type="line"/>
    </contour>
    <contour>
      <point x="15" y="0" type="line"/>
      <point x="318" y="722" type="line"/>
      <point x="428" y="722" type="line"/>
      <point x="735" y="0" type="line"/>
      <point x="629" y="0" type="line"/>
      <point x="551" y="193" type="line"/>
      <point x="197" y="193" type="line"/>
      <point x="118" y="0" type="line"/>
    </contour>
    <contour>
      <point x="523" y="797" type="line"/>
      <point x="433" y="797" type="line"/>
      <point x="433" y="897" type="line"/>
      <point x="523" y="897" type="line"/>
    </contour>
    <contour>
      <point x="323" y="797" type="line"/>
      <point x="233" y="797" type="line"/>
      <point x="233" y="897" type="line"/>
      <point x="323" y="897" type="line"/>
    </contour>
    <contour>
      <point x="524" y="972" type="line"/>
      <point x="234" y="972" type="line"/>
      <point x="234" y="1041" type="line"/>
      <point x="524" y="1041" type="line"/>
    </contour>
  </outline>
</glyph>
<glyph name="uni0251" format="2">
  <advance width="606"/>
  <unicode hex="0251"/>
  <outline>
    <contour>
      <point x="297.478" y="52" type="curve" smooth="yes"/>
      <point x="378.185" y="52"/>
      <point x="429" y="139"/>
      <point x="429" y="240.174" type="curve" smooth="yes"/>
      <point x="429" y="357"/>
      <point x="361.246" y="446"/>
      <point x="281.536" y="446" type="curve" smooth="yes"/>
      <point x="203.819" y="446"/>
      <point x="154" y="361"/>
      <point x="154" y="257.968" type="curve" smooth="yes"/>
      <point x="154" y="147"/>
      <point x="211.79" y="52"/>
    </contour>
    <contour>
      <point x="526" y="0" type="line"/>
      <point x="436" y="0" type="line"/>
      <point x="436" y="75" type="line"/>
      <point x="392.162" y="17.7833"/>
      <point x="328.366" y="-12"/>
      <point x="272.745" y="-12" type="curve" smooth="yes"/>
      <point x="156.989" y="-12"/>
      <point x="60" y="117"/>
      <point x="60" y="247" type="curve" smooth="yes"/>
      <point x="60" y="405"/>
      <point x="141.871" y="512"/>
      <point x="285.273" y="512" type="curve" smooth="yes"/>
      <point x="362.974" y="512"/>
      <point x="398.304" y="481.216"/>
      <point x="436" y="427" type="curve"/>
      <point x="436" y="500" type="line"/>
      <point x="526" y="500" type="line"/>
    </contour>
  </outline>
</glyph>
<glyph name="uni0268" format="2">
  <advance width="320"/>
  <unicode hex="0268"/>
  <outline>
    <component base="i" xOffset="27"/>
    <contour>
      <point x="295" y="222" type="line"/>
      <point x="25" y="222" type="line"/>
      <point x="25" y="278" type="line"/>
      <point x="295" y="278" type="line"/>
    </contour>
  </outline>
</glyph>
<glyph name="uni0278" format="2">
  <advance width="612"/>
  <unicode hex="0278"/>
  <outline>
    <contour>
      <point x="552" y="250" type="curve" smooth="yes"/>
      <point x="552" y="395"/>
      <point x="473" y="496"/>
      <point x="351" y="511" type="curve"/>
      <point x="351" y="722" type="line"/>
      <point x="261" y="722" type="line"/>
      <point x="261" y="511" type="line"/>
      <point x="139" y="496"/>
      <point x="60" y="395"/>
      <point x="60" y="250" type="curve" smooth="yes"/>
      <point x="60" y="106"/>
      <point x="138" y="5"/>
      <point x="261" y="-10" type="curve"/>
      <point x="261" y="-200" type="line"/>
      <point x="351" y="-200" type="line"/>
      <point x="351" y="-8" type="line"/>
      <point x="473" y="7"/>
      <point x="552" y="105"/>
    </contour>
    <contour>
      <point x="261" y="57" type="line"/>
      <point x="199" y="74"/>
      <point x="154" y="155"/>
      <point x="154" y="247" type="curve" smooth="yes"/>
      <point x="154" y="339"/>
      <point x="199" y="420"/>
      <point x="261" y="437" type="curve"/>
    </contour>
    <contour>
      <point x="458" y="248" type="curve" smooth="yes"/>
      <point x="458" y="156"/>
      <point x="413" y="75"/>
      <point x="351" y="58" type="curve"/>
      <point x="351" y="437" type="line"/>
      <point x="413" y="420"/>
      <point x="458" y="340"/>
    </contour>
  </outline>
</glyph>
<glyph name="uni0288" format="2">
  <advance width="370"/>
  <unicode hex="0288"/>
  <outline>
    <contour>
      <point x="204" y="-58" type="line" smooth="yes"/>
      <point x="204" y="-103"/>
      <point x="215" y="-133"/>
      <point x="253" y="-133" type="curve" smooth="yes"/>
      <point x="273" y="-133"/>
      <point x="294" y="-130"/>
      <point x="314" y="-124" type="curve"/>
      <point x="314" y="-188" type="line"/>
      <point x="286" y="-197"/>
      <point x="256" y="-200"/>
      <point x="227" y="-200" type="curve" smooth="yes"/>
      <point x="141" y="-200"/>
      <point x="114" y="-151"/>
      <point x="114" y="-55" type="curve" smooth="yes"/>
      <point x="114" y="435" type="line"/>
      <point x="24" y="435" type="line"/>
      <point x="24" y="500" type="line"/>
      <point x="114" y="500" type="line"/>
      <point x="114" y="599" type="line"/>
      <point x="204" y="636" type="line"/>
      <point x="204" y="500" type="line"/>
      <point x="314" y="500" type="line"/>
      <point x="314" y="435" type="line"/>
      <point x="204" y="435" type="line"/>
    </contour>
  </outline>
</glyph>
<glyph name="uni029C" format="2">
  <advance width="525"/>
  <unicode hex="029C"/>
  <outline>
    <contour>
      <point x="468" y="0" type="line"/>
      <point x="389" y="0" type="line"/>
      <point x="389" y="219" type="line"/>
      <point x="136" y="219" type="line"/>
      <point x="136" y="0" type="line"/>
      <point x="57" y="0" type="line"/>
      <point x="57" y="500" type="line"/>
      <point x="136" y="500" type="line"/>
      <point x="136" y="292" type="line"/>
      <point x="389" y="292" type="line"/>
      <point x="389" y="500" type="line"/>
      <point x="468" y="500" type="line"/>
    </contour>
  </outline>
</glyph>
<glyph name="uni029F" format="2">
  <advance width="392"/>
  <unicode hex="029F"/>
  <outline>
    <contour>
      <point x="372" y="0" type="line"/>
      <point x="57" y="0" type="line"/>
      <point x="57" y="500" type="line"/>
      <point x="147" y="500" type="line"/>
      <point x="147" y="65" type="line"/>
      <point x="372" y="65" type="line"/>
    </contour>
  </outline>
</glyph>
<glyph name="caron" format="2">
  <advance width="289"/>
  <unicode hex="02C7"/>
  <anchor x="145" y="600" name="_top"/>
  <outline>
    <contour>
      <point x="290" y="770" type="line"/>
      <point x="200" y="600" type="line"/>
      <point x="90" y="600" type="line"/>
      <point x="0" y="770" type="line"/>
      <point x="60" y="770" type="line"/>
      <point x="145" y="660" type="line"/>
      <point x="230" y="770" type="line"/>
    </contour>
  </outline>
</glyph>
<glyph name="breve" format="2">
  <advance width="281"/>
  <unicode hex="02D8"/>
  <outline>
    <contour>
      <point x="139" y="663" type="curve" smooth="yes"/>
      <point x="177" y="663"/>
      <point x="221" y="686"/>
      <point x="228" y="717" type="curve"/>
      <point x="280" y="717" type="line"/>
      <point x="271" y="654"/>
      <point x="213" y="600"/>
      <point x="139" y="600" type="curve" smooth="yes"/>
      <point x="66" y="600"/>
      <point x="7" y="653"/>
      <point x="-1" y="717" type="curve"/>
      <point x="51" y="717" type="line"/>
      <point x="58" y="687"/>
      <point x="102" y="663"/>
    </contour>
  </outline>
</glyph>
<glyph name="dotaccent" format="2">
  <advance width="89"/>
  <unicode hex="02D9"/>
  <anchor x="45" y="600" name="_top"/>
  <outline>
    <contour>
      <point x="90" y="600" type="line"/>
      <point x="0" y="600" type="line"/>
      <point x="0" y="700" type="line"/>
      <point x="90" y="700" type="line"/>
    </contour>
  </outline>
</glyph>
<glyph name="uni02E6" format="2">
  <advance width="357"/>
  <unicode hex="02E6"/>
  <outline>
    <contour>
      <point x="287" y="0" type="line"/>
      <point x="223" y="0" type="line"/>
      <point x="223" y="497" type="line"/>
      <point x="20" y="497" type="line"/>
      <point x="20" y="561" type="line"/>
      <point x="223" y="561" type="line"/>
      <point x="223" y="722" type="line"/>
      <point x="287" y="722" type="line"/>
    </contour>
  </outline>
</glyph>
<glyph name="uni0305" format="2">
  <unicode hex="0305"/>
  <anchor x="-280" y="600" name="_top"/>
  <outline>
    <contour>
      <point x="0" y="600" type="line"/>
      <point x="-560" y="600" type="line"/>
      <point x="-560" y="669" type="line"/>
      <point x="0" y="669" type="line"/>
    </contour>
  </outline>
</glyph>
<glyph name="uni0307" format="2">
  <advance width="1"/>
  <unicode hex="0307"/>
  <anchor x="-290" y="600" name="_top"/>
  <outline>
    <contour>
      <point x="-337" y="600" type="line"/>
      <point x="-337" y="700" type="line"/>
      <point x="-247" y="700" type="line"/>
      <point x="-247" y="600" type="line"/>
    </contour>
  </outline>
</glyph>
<glyph name="uni030B" format="2">
  <advance width="1"/>
  <unicode hex="030B"/>
  <outline>
    <contour>
      <point x="-232" y="771" type="line"/>
      <point x="-342" y="600" type="line"/>
      <point x="-392" y="600" type="line"/>
      <point x="-322" y="771" type="line"/>
    </contour>
    <contour>
      <point x="-92" y="771" type="line"/>
      <point x="-202" y="600" type="line"/>
      <point x="-252" y="600" type="line"/>
      <point x="-182" y="771" type="line"/>
    </contour>
  </outline>
</glyph>
<glyph name="uni030E" format="2">
  <advance width="1"/>
  <unicode hex="030E"/>
  <outline>
    <contour>
      <point x="-325" y="600" type="line"/>
      <point x="-385" y="600" type="line"/>
      <point x="-385" y="780" type="line"/>
      <point x="-325" y="780" type="line"/>
    </contour>
    <contour>
      <point x="-205" y="600" type="line"/>
      <point x="-265" y="600" type="line"/>
      <point x="-265" y="780" type="line"/>
      <point x="-205" y="780" type="line"/>
    </contour>
  </outline>
</glyph>
<glyph name="uni0310" format="2">
  <advance width="1"/>
  <unicode hex="0310"/>
  <anchor x="-290" y="600" name="_top"/>
  <outline>
    <contour>
      <point x="-439" y="717" type="curve"/>
      <point x="-387" y="717" type="line"/>
      <point x="-381" y="686"/>
      <point x="-333" y="664"/>
      <point x="-297" y="664" type="curve" smooth="yes"/>
      <point x="-261" y="664"/>
      <point x="-213" y="686"/>
      <point x="-207" y="717" type="curve"/>
      <point x="-157" y="717" type="line"/>
      <point x="-168" y="651"/>
      <point x="-229" y="600"/>
      <point x="-298" y="600" type="curve" smooth="yes"/>
      <point x="-369" y="600"/>
      <point x="-431" y="651"/>
    </contour>
    <contour>
      <point x="-337" y="717" type="line"/>
      <point x="-337" y="817" type="line"/>
      <point x="-247" y="817" type="line"/>
      <point x="-247" y="717" type="line"/>
    </contour>
  </outline>
</glyph>
<glyph name="uni032A" format="2">
  <advance width="1"/>
  <unicode hex="032A"/>
  <outline>
    <contour>
      <point x="-227.5" y="-230" type="line"/>
      <point x="-227.5" y="-140" type="line"/>
      <point x="-367.5" y="-140" type="line"/>
      <point x="-367.5" y="-230" type="line"/>
      <point x="-407.5" y="-230" type="line"/>
      <point x="-407.5" y="-100" type="line"/>
      <point x="-187.5" y="-100" type="line"/>
      <point x="-187.5" y="-230" type="line"/>
    </contour>
  </outline>
</glyph>
<glyph name="tonos" format="2">
  <advance width="161"/>
  <unicode hex="0384"/>
  <anchor x="16" y="512" name="_tonos.top"/>
  <anchor x="17" y="512" name="_top"/>
  <outline>
    <contour>
      <point x="140" y="722" type="line"/>
      <point x="50" y="512" type="line"/>
      <point x="-20" y="512" type="line"/>
      <point x="40" y="722" type="line"/>
    </contour>
  </outline>
</glyph>
<glyph name="Pi" format="2">
  <advance width="673"/>
  <unicode hex="03A0"/>
  <outline>
    <contour>
      <point x="609" y="0" type="line"/>
      <point x="508" y="0" type="line"/>
      <point x="508" y="635" type="line"/>
      <point x="161" y="635" type="line"/>
      <point x="161" y="0" type="line"/>
      <point x="60" y="0" type="line"/>
      <point x="60" y="722" type="line"/>
      <point x="609" y="722" type="line"/>
    </contour>
  </outline>
</glyph>
<glyph name="Phi" format="2">
  <advance width="735"/>
  <unicode hex="03A6"/>
  <outline>
    <contour>
      <point x="147" y="372" type="curve" smooth="yes"/>
      <point x="147" y="203"/>
      <point x="206" y="153"/>
      <point x="296" y="153" type="curve" smooth="yes"/>
      <point x="312" y="153" type="line"/>
      <point x="312" y="564" type="line"/>
      <point x="296" y="564" type="line" smooth="yes"/>
      <point x="206" y="564"/>
      <point x="147" y="517"/>
    </contour>
    <contour>
      <point x="50" y="373" type="curve" smooth="yes"/>
      <point x="50" y="583"/>
      <point x="162" y="652"/>
      <point x="299" y="652" type="curve" smooth="yes"/>
      <point x="312" y="652" type="line"/>
      <point x="312" y="721" type="line"/>
      <point x="413" y="721" type="line"/>
      <point x="413" y="651" type="line"/>
      <point x="426" y="651" type="line" smooth="yes"/>
      <point x="569" y="651"/>
      <point x="685" y="583"/>
      <point x="685" y="373" type="curve" smooth="yes"/>
      <point x="685" y="130"/>
      <point x="568" y="65"/>
      <point x="426" y="65" type="curve" smooth="yes"/>
      <point x="413" y="65" type="line"/>
      <point x="413" y="-1" type="line"/>
      <point x="312" y="-1" type="line"/>
      <point x="312" y="65" type="line"/>
      <point x="299" y="65" type="line" smooth="yes"/>
      <point x="162" y="65"/>
      <point x="50" y="130"/>
    </contour>
    <contour>
      <point x="413" y="154" type="line"/>
      <point x="429" y="154" type="line" smooth="yes"/>
      <point x="526" y="154"/>
      <point x="588" y="204"/>
      <point x="588" y="373" type="curve" smooth="yes"/>
      <point x="588" y="518"/>
      <point x="525" y="565"/>
      <point x="429" y="565" type="curve" smooth="yes"/>
      <point x="413" y="565" type="line"/>
    </contour>
  </outline>
</glyph>
<glyph name="delta" format="2">
  <advance width="608"/>
  <unicode hex="03B4"/>
  <outline>
    <contour>
      <point x="351" y="416.277" type="curve"/>
      <point x="319" y="416.277" type="line" smooth="yes"/>
      <point x="193" y="416.277"/>
      <point x="144" y="325.961"/>
      <point x="144" y="231.761" type="curve" smooth="yes"/>
      <point x="144" y="129.274"/>
      <point x="202" y="51"/>
      <point x="299" y="51" type="curve" smooth="yes"/>
      <point x="309" y="51" type="line" smooth="yes"/>
      <point x="414" y="51"/>
      <point x="457" y="154.361"/>
      <point x="457" y="228.621" type="curve" smooth="yes"/>
      <point x="457" y="313.919"/>
      <point x="426" y="369.869"/>
    </contour>
    <contour>
      <point x="92" y="654.944" type="line"/>
      <point x="92" y="722" type="line"/>
      <point x="492" y="722" type="line"/>
      <point x="492" y="653" type="line"/>
      <point x="211" y="653" type="line"/>
      <point x="426" y="473.477" type="line" smooth="yes"/>
      <point x="498.274" y="413.129"/>
      <point x="546" y="335.996"/>
      <point x="546" y="235.739" type="curve" smooth="yes"/>
      <point x="546" y="71.0702"/>
      <point x="430" y="-16"/>
      <point x="289.289" y="-16" type="curve" smooth="yes"/>
      <point x="125" y="-16"/>
      <point x="50" y="102.694"/>
      <point x="50" y="227.618" type="curve" smooth="yes"/>
      <point x="50" y="418.459"/>
      <point x="159.685" y="466.056"/>
      <point x="287" y="484.516" type="curve"/>
    </contour>
  </outline>
</glyph>
<glyph name="zeta" format="2">
  <advance width="444"/>
  <unicode hex="03B6"/>
  <outline>
    <contour>
      <point x="78" y="653" type="line"/>
      <point x="78" y="722" type="line"/>
      <point x="427" y="722" type="line"/>
      <point x="427" y="666.606" type="line"/>
      <point x="197.665" y="535.61"/>
      <point x="126" y="283.211"/>
      <point x="126" y="220.807" type="curve" smooth="yes"/>
      <point x="126" y="188.636" type="line" smooth="yes"/>
      <point x="126" y="115.608"/>
      <point x="163.789" y="69"/>
      <point x="223" y="69" type="curve" smooth="yes"/>
      <point x="347" y="69" type="line" smooth="yes"/>
      <point x="405.827" y="69"/>
      <point x="438" y="33.453"/>
      <point x="438" y="-32" type="curve" smooth="yes"/>
      <point x="438" y="-41"/>
      <point x="437.288" y="-50.0774"/>
      <point x="435" y="-58" type="curve" smooth="yes"/>
      <point x="394" y="-200" type="line"/>
      <point x="319" y="-200" type="line"/>
      <point x="354" y="-89" type="line" smooth="yes"/>
      <point x="359.419" y="-71.8145"/>
      <point x="363" y="-52.6599"/>
      <point x="363" y="-40.8026" type="curve" smooth="yes"/>
      <point x="363" y="-21.1881"/>
      <point x="353.2" y="0"/>
      <point x="336" y="0" type="curve" smooth="yes"/>
      <point x="197" y="0" type="line" smooth="yes"/>
      <point x="102" y="0"/>
      <point x="32" y="78.9564"/>
      <point x="32" y="187.631" type="curve" smooth="yes"/>
      <point x="32" y="199.695" type="line" smooth="yes"/>
      <point x="32" y="371.202"/>
      <point x="159.114" y="552.866"/>
      <point x="285" y="653" type="curve"/>
    </contour>
  </outline>
</glyph>
<glyph name="xi" format="2">
  <advance width="496"/>
  <unicode hex="03BE"/>
  <outline>
    <contour>
      <point x="50" y="187.566" type="curve" smooth="yes"/>
      <point x="50" y="75.4488"/>
      <point x="116.439" y="-6"/>
      <point x="223" y="-6" type="curve" smooth="yes"/>
      <point x="386" y="-6" type="line" smooth="yes"/>
      <point x="411.441" y="-6"/>
      <point x="417.334" y="-18.5639"/>
      <point x="417.089" y="-31.3639" type="curve" smooth="yes"/>
      <point x="416.741" y="-49.532"/>
      <point x="403.589" y="-86.3774"/>
      <point x="401" y="-94" type="curve" smooth="yes"/>
      <point x="365" y="-200" type="line"/>
      <point x="439" y="-200" type="line"/>
      <point x="480" y="-78" type="line" smooth="yes"/>
      <point x="484.25" y="-65.3534"/>
      <point x="493" y="-33"/>
      <point x="493" y="-10.367" type="curve" smooth="yes"/>
      <point x="493" y="33"/>
      <point x="461.348" y="72"/>
      <point x="395" y="72" type="curve" smooth="yes"/>
      <point x="250" y="72" type="line" smooth="yes"/>
      <point x="193.114" y="72"/>
      <point x="144" y="112.91"/>
      <point x="144" y="198" type="curve" smooth="yes"/>
      <point x="144" y="313.975"/>
      <point x="291" y="327"/>
      <point x="370" y="327" type="curve" smooth="yes"/>
      <point x="422" y="327" type="line"/>
      <point x="422" y="396" type="line"/>
      <point x="296" y="396" type="line" smooth="yes"/>
      <point x="174.905" y="396"/>
      <point x="50" y="341.293"/>
    </contour>
    <contour>
      <point x="72" y="649" type="line"/>
      <point x="450" y="649" type="line"/>
      <point x="450" y="722" type="line"/>
      <point x="72" y="722" type="line"/>
    </contour>
    <contour>
      <point x="310.673" y="391.774" type="line"/>
      <point x="250.166" y="408.692"/>
      <point x="182" y="451.409"/>
      <point x="182" y="530.509" type="curve" smooth="yes"/>
      <point x="182" y="586.543"/>
      <point x="216.206" y="633.781"/>
      <point x="281.962" y="659.222" type="curve"/>
      <point x="180.296" y="659.247" type="line"/>
      <point x="135.056" y="629.718"/>
      <point x="92" y="577.511"/>
      <point x="92" y="517.201" type="curve" smooth="yes"/>
      <point x="92" y="442.514"/>
      <point x="158.031" y="383.793"/>
      <point x="222.572" y="362.506" type="curve"/>
    </contour>
  </outline>
</glyph>
<glyph name="chi" format="2">
  <advance width="551"/>
  <unicode hex="03C7"/>
  <outline>
    <contour>
      <point x="410" y="-159" type="curve" smooth="yes"/>
      <point x="93" y="394" type="line" smooth="yes"/>
      <point x="82.0816" y="413.047"/>
      <point x="62.0702" y="433.951"/>
      <point x="40" y="434" type="curve" smooth="yes"/>
      <point x="30.63" y="434.021"/>
      <point x="20.8422" y="432.789"/>
      <point x="12" y="431" type="curve"/>
      <point x="12" y="501" type="line"/>
      <point x="29.513" y="505.638"/>
      <point x="63.136" y="512.597"/>
      <point x="81.667" y="512.692" type="curve" smooth="yes"/>
      <point x="110.991" y="512.842"/>
      <point x="132.55" y="497.977"/>
      <point x="148" y="471" type="curve" smooth="yes"/>
      <point x="471" y="-93" type="line" smooth="yes"/>
      <point x="484.13" y="-115.926"/>
      <point x="508" y="-118"/>
      <point x="529" y="-118" type="curve" smooth="yes"/>
      <point x="536" y="-118"/>
      <point x="540" y="-118"/>
      <point x="545" y="-117" type="curve"/>
      <point x="545" y="-186" type="line"/>
      <point x="528" y="-192"/>
      <point x="511" y="-195"/>
      <point x="491" y="-195" type="curve" smooth="yes"/>
      <point x="461" y="-195"/>
      <point x="424.837" y="-184.882"/>
    </contour>
    <contour>
      <point x="311.305" y="150.124" type="line"/>
      <point x="263.388" y="235.075" type="line"/>
      <point x="420" y="501" type="line"/>
      <point x="521" y="501" type="line"/>
    </contour>
    <contour>
      <point x="237.279" y="179.589" type="line"/>
      <point x="286.033" y="102.899" type="line"/>
      <point x="108" y="-187" type="line"/>
      <point x="12" y="-187" type="line"/>
    </contour>
  </outline>
</glyph>
<glyph name="Tshecyr" format="2">
  <advance width="798"/>
  <unicode hex="040B"/>
  <outline>
    <contour>
      <point x="748.144" y="0" type="line"/>
      <point x="644.859" y="0" type="line"/>
      <point x="645" y="221.626" type="line" smooth="yes"/>
      <point x="645.064" y="321.77"/>
      <point x="578.573" y="379.198"/>
      <point x="466.682" y="379.198" type="curve" smooth="yes"/>
      <point x="414.899" y="379.198"/>
      <point x="365.1" y="366.898"/>
      <point x="330" y="349.198" type="curve"/>
      <point x="330" y="426.996" type="line"/>
      <point x="365.1" y="444.696"/>
      <point x="444.899" y="456.996"/>
      <point x="490" y="456.996" type="curve" smooth="yes"/>
      <point x="657.277" y="456.996"/>
      <point x="747.912" y="372.998"/>
      <point x="748" y="231.409" type="curve" smooth="yes"/>
    </contour>
    <contour>
      <point x="592" y="635" type="line"/>
      <point x="356" y="635" type="line"/>
      <point x="356" y="0" type="line"/>
      <point x="256" y="0" type="line"/>
      <point x="256" y="635" type="line"/>
      <point x="20" y="635" type="line"/>
      <point x="20" y="722" type="line"/>
      <point x="592" y="722" type="line"/>
    </contour>
  </outline>
</glyph>
<glyph name="uni0419" format="2">
  <advance width="703"/>
  <unicode hex="0419"/>
  <outline>
    <contour>
      <point x="70" y="0" type="line"/>
      <point x="70" y="722" type="line"/>
      <point x="171" y="722" type="line"/>
      <point x="171" y="130" type="line"/>
      <point x="490" y="722" type="line"/>
      <point x="633" y="722" type="line"/>
      <point x="633" y="0" type="line"/>
      <point x="532" y="0" type="line"/>
      <point x="532" y="592" type="line"/>
      <point x="214" y="0" type="line"/>
    </contour>
    <contour>
      <point x="336" y="823" type="curve" smooth="yes"/>
      <point x="374" y="823"/>
      <point x="418" y="846"/>
      <point x="425" y="877" type="curve"/>
      <point x="477" y="877" type="line"/>
      <point x="468" y="814"/>
      <point x="410" y="760"/>
      <point x="336" y="760" type="curve" smooth="yes"/>
      <point x="263" y="760"/>
      <point x="204" y="813"/>
      <point x="196" y="877" type="curve"/>
      <point x="248" y="877" type="line"/>
      <point x="255" y="847"/>
      <point x="299" y="823"/>
    </contour>
  </outline>
</glyph>
<glyph name="uni042A" format="2">
  <advance width="666"/>
  <unicode hex="042A"/>
  <outline>
    <contour>
      <point x="632" y="208" type="curve" smooth="yes"/>
      <point x="632" y="36"/>
      <point x="512" y="0"/>
      <point x="353" y="0" type="curve" smooth="yes"/>
      <point x="149" y="0" type="line"/>
      <point x="149" y="635" type="line"/>
      <point x="20" y="635" type="line"/>
      <point x="20" y="722" type="line"/>
      <point x="250" y="722" type="line"/>
      <point x="250" y="416" type="line"/>
      <point x="353" y="416" type="line" smooth="yes"/>
      <point x="515" y="416"/>
      <point x="632" y="374"/>
    </contour>
    <contour>
      <point x="356" y="327" type="curve" smooth="yes"/>
      <point x="250" y="327" type="line"/>
      <point x="250" y="86" type="line"/>
      <point x="356" y="86" type="line" smooth="yes"/>
      <point x="464" y="86"/>
      <point x="535" y="109"/>
      <point x="535" y="208" type="curve" smooth="yes"/>
      <point x="535" y="307"/>
      <point x="465" y="327"/>
    </contour>
  </outline>
</glyph>
<glyph name="uni042D" format="2">
  <advance width="715"/>
  <unicode hex="042D"/>
  <outline>
    <contour>
      <point x="52" y="165" type="curve"/>
      <point x="161" y="165" type="line"/>
      <point x="195" y="111"/>
      <point x="251" y="73"/>
      <point x="337" y="73" type="curve" smooth="yes"/>
      <point x="500" y="73"/>
      <point x="559" y="183"/>
      <point x="559" y="325" type="curve"/>
      <point x="270" y="325" type="line"/>
      <point x="270" y="412" type="line"/>
      <point x="559" y="412" type="line"/>
      <point x="559" y="497"/>
      <point x="518" y="648"/>
      <point x="337" y="648" type="curve" smooth="yes"/>
      <point x="258" y="648"/>
      <point x="200" y="623"/>
      <point x="163" y="572" type="curve"/>
      <point x="53" y="572" type="line"/>
      <point x="104" y="672"/>
      <point x="198" y="733"/>
      <point x="339" y="733" type="curve" smooth="yes"/>
      <point x="554" y="733"/>
      <point x="665" y="586"/>
      <point x="665" y="373" type="curve" smooth="yes"/>
      <point x="665" y="142"/>
      <point x="541" y="-15"/>
      <point x="338" y="-15" type="curve" smooth="yes"/>
      <point x="198" y="-15"/>
      <point x="99" y="65"/>
    </contour>
  </outline>
</glyph>
<glyph name="uni043A" format="2">
  <advance width="499"/>
  <unicode hex="043A"/>
  <outline>
    <contour>
      <point x="80" y="0" type="line"/>
      <point x="80" y="500" type="line"/>
      <point x="170" y="500" type="line"/>
      <point x="170" y="272" type="line"/>
      <point x="172" y="272" type="line"/>
      <point x="358" y="500" type="line"/>
      <point x="476" y="500" type="line"/>
      <point x="261" y="265" type="line"/>
      <point x="489" y="0" type="line"/>
      <point x="371" y="0" type="line"/>
      <point x="172" y="248" type="line"/>
      <point x="170" y="248" type="line"/>
      <point x="170" y="0" type="line"/>
    </contour>
  </outline>
</glyph>
<glyph name="uni0446" format="2">
  <advance width="611"/>
  <unicode hex="0446"/>
  <outline>
    <contour>
      <point x="80" y="0" type="line"/>
      <point x="80" y="500" type="line"/>
      <point x="170" y="500" type="line"/>
      <point x="170" y="65" type="line"/>
      <point x="417" y="65" type="line"/>
      <point x="417" y="500" type="line"/>
      <point x="507" y="500" type="line"/>
      <point x="507" y="65" type="line"/>
      <point x="581" y="65" type="line"/>
      <point x="581" y="-141" type="line"/>
      <point x="491" y="-141" type="line"/>
      <point x="491" y="0" type="line"/>
    </contour>
  </outline>
</glyph>
<glyph name="uni0449" format="2">
  <advance width="852"/>
  <unicode hex="0449"/>
  <outline>
    <contour>
      <point x="80" y="0" type="line"/>
      <point x="80" y="500" type="line"/>
      <point x="170" y="500" type="line"/>
      <point x="170" y="65" type="line"/>
      <point x="369" y="65" type="line"/>
      <point x="369" y="500" type="line"/>
      <point x="459" y="500" type="line"/>
      <point x="459" y="65" type="line"/>
      <point x="658" y="65" type="line"/>
      <point x="658" y="500" type="line"/>
      <point x="748" y="500" type="line"/>
      <point x="748" y="65" type="line"/>
      <point x="822" y="65" type="line"/>
      <point x="822" y="-141" type="line"/>
      <point x="732" y="-141" type="line"/>
      <point x="732" y="0" type="line"/>
    </contour>
  </outline>
</glyph>
<glyph name="uni044B" format="2">
  <advance width="740"/>
  <unicode hex="044B"/>
  <outline>
    <contour>
      <point x="80" y="0" type="line"/>
      <point x="80" y="500" type="line"/>
      <point x="170" y="500" type="line"/>
      <point x="170" y="325" type="line"/>
      <point x="300" y="325" type="line" smooth="yes"/>
      <point x="409" y="325"/>
      <point x="479" y="263"/>
      <point x="479" y="162" type="curve" smooth="yes"/>
      <point x="479" y="62"/>
      <point x="416" y="0"/>
      <point x="309" y="0" type="curve" smooth="yes"/>
    </contour>
    <contour>
      <point x="170" y="70" type="line"/>
      <point x="285" y="70" type="line" smooth="yes"/>
      <point x="346" y="70"/>
      <point x="384" y="106"/>
      <point x="384" y="163" type="curve" smooth="yes"/>
      <point x="384" y="223"/>
      <point x="348" y="255"/>
      <point x="279" y="255" type="curve" smooth="yes"/>
      <point x="170" y="255" type="line"/>
    </contour>
    <contour>
      <point x="570" y="0" type="line"/>
      <point x="570" y="500" type="line"/>
      <point x="660" y="500" type="line"/>
      <point x="660" y="0" type="line"/>
    </contour>
  </outline>
</glyph>
<glyph name="uni044D" format="2">
  <advance width="597"/>
  <unicode hex="044D"/>
  <outline>
    <contour>
      <point x="60" y="146" type="curve"/>
      <point x="158" y="146" type="line"/>
      <point x="182" y="92"/>
      <point x="225" y="50"/>
      <point x="291" y="50" type="curve" smooth="yes"/>
      <point x="381" y="50"/>
      <point x="431" y="129"/>
      <point x="440" y="215" type="curve"/>
      <point x="215" y="215" type="line"/>
      <point x="215" y="278" type="line"/>
      <point x="441" y="278" type="line"/>
      <point x="432" y="365"/>
      <point x="381" y="446"/>
      <point x="290" y="446" type="curve" smooth="yes"/>
      <point x="230" y="446"/>
      <point x="190" y="414"/>
      <point x="165" y="365" type="curve"/>
      <point x="63" y="365" type="line"/>
      <point x="95" y="452"/>
      <point x="183" y="510"/>
      <point x="291" y="510" type="curve" smooth="yes"/>
      <point x="444" y="510"/>
      <point x="537" y="408"/>
      <point x="537" y="248" type="curve" smooth="yes"/>
      <point x="537" y="88"/>
      <point x="444" y="-14"/>
      <point x="291" y="-14" type="curve" smooth="yes"/>
      <point x="176" y="-14"/>
      <point x="89" y="50"/>
    </contour>
  </outline>
</glyph>
<glyph name="uni044E" format="2">
  <advance width="808"/>
  <unicode hex="044E"/>
  <outline>
    <contour>
      <point x="80" y="0" type="line"/>
      <point x="80" y="500" type="line"/>
      <point x="170" y="500" type="line"/>
      <point x="170" y="294" type="line"/>
      <point x="258" y="294" type="line"/>
      <point x="268" y="418.827"/>
      <point x="359" y="510"/>
      <point x="507" y="510" type="curve" smooth="yes"/>
      <point x="665" y="510"/>
      <point x="748" y="406.747"/>
      <point x="748" y="254.061" type="curve" smooth="yes"/>
      <point x="748" y="89"/>
      <point x="651" y="-10"/>
      <point x="500.969" y="-10" type="curve" smooth="yes"/>
      <point x="354" y="-10"/>
      <point x="265" y="85"/>
      <point x="255" y="225" type="curve"/>
      <point x="170" y="225" type="line"/>
      <point x="170" y="0" type="line"/>
    </contour>
    <contour>
      <point x="350" y="246.705" type="curve" smooth="yes"/>
      <point x="350" y="128"/>
      <point x="407" y="55"/>
      <point x="501" y="55" type="curve" smooth="yes"/>
      <point x="608" y="55"/>
      <point x="653" y="146"/>
      <point x="653" y="254.571" type="curve" smooth="yes"/>
      <point x="653" y="375.54"/>
      <point x="598" y="445"/>
      <point x="507" y="445" type="curve" smooth="yes"/>
      <point x="412" y="445"/>
      <point x="350" y="370.507"/>
    </contour>
  </outline>
</glyph>
<glyph name="uni044F" format="2">
  <advance width="536"/>
  <unicode hex="044F"/>
  <outline>
    <contour>
      <point x="366" y="277" type="line"/>
      <point x="366" y="430" type="line"/>
      <point x="239" y="430" type="line" smooth="yes"/>
      <point x="180" y="430"/>
      <point x="145" y="402"/>
      <point x="145" y="354" type="curve" smooth="yes"/>
      <point x="145" y="303"/>
      <point x="179" y="277"/>
      <point x="245" y="277" type="curve" smooth="yes"/>
    </contour>
    <contour>
      <point x="30" y="0" type="line"/>
      <point x="42" y="30"/>
      <point x="46" y="47"/>
      <point x="55" y="112" type="curve" smooth="yes"/>
      <point x="57" y="127" type="line" smooth="yes"/>
      <point x="68" y="203"/>
      <point x="94" y="223"/>
      <point x="146" y="238" type="curve"/>
      <point x="146" y="234" type="line"/>
      <point x="79" y="254"/>
      <point x="50" y="296"/>
      <point x="50" y="361" type="curve" smooth="yes"/>
      <point x="50" y="445"/>
      <point x="118" y="500"/>
      <point x="220" y="500" type="curve" smooth="yes"/>
      <point x="456" y="500" type="line"/>
      <point x="456" y="0" type="line"/>
      <point x="366" y="0" type="line"/>
      <point x="366" y="210" type="line"/>
      <point x="235" y="210" type="line" smooth="yes"/>
      <point x="170" y="210"/>
      <point x="153" y="198"/>
      <point x="147" y="114" type="curve" smooth="yes"/>
      <point x="142" y="53"/>
      <point x="137" y="32"/>
      <point x="129" y="0" type="curve"/>
    </contour>
  </outline>
</glyph>
<glyph name="uni0431.loclSRB" format="2">
  <advance width="586"/>
  <outline>
    <contour>
      <point x="50" y="276" type="curve" smooth="yes"/>
      <point x="50" y="605"/>
      <point x="176.415" y="663.587"/>
      <point x="310.03" y="687.69" type="curve" smooth="yes"/>
      <point x="418.522" y="707.262"/>
      <point x="446" y="712.85"/>
      <point x="464.697" y="722" type="curve"/>
      <point x="526" y="722" type="line"/>
      <point x="516" y="672"/>
      <point x="489.575" y="620.552"/>
      <point x="391.834" y="613" type="curve" smooth="yes"/>
      <point x="204.388" y="598.541"/>
      <point x="148.091" y="554.811"/>
      <point x="119.263" y="401" type="curve"/>
      <point x="121.242" y="400" type="line"/>
      <point x="161.057" y="476"/>
      <point x="231.294" y="512"/>
      <point x="309.85" y="512" type="curve" smooth="yes"/>
      <point x="449" y="512"/>
      <point x="536" y="399"/>
      <point x="536" y="255" type="curve" smooth="yes"/>
      <point x="536" y="111"/>
      <point x="449" y="-14"/>
      <point x="285.449" y="-14" type="curve" smooth="yes"/>
      <point x="120.253" y="-14"/>
      <point x="50" y="114"/>
    </contour>
    <contour>
      <point x="144" y="263" type="curve" smooth="yes"/>
      <point x="144" y="156"/>
      <point x="180.122" y="51"/>
      <point x="285.479" y="51" type="curve" smooth="yes"/>
      <point x="391.834" y="51"/>
      <point x="441" y="158"/>
      <point x="441" y="258.636" type="curve" smooth="yes"/>
      <point x="441" y="354"/>
      <point x="396.851" y="447"/>
      <point x="296.932" y="447" type="curve" smooth="yes"/>
      <point x="199.186" y="447"/>
      <point x="144" y="358"/>
    </contour>
  </outline>
</glyph>
<glyph name="uni0432.loclBGR" format="2">
  <advance width="628"/>
  <outline>
    <contour>
      <point x="174" y="402.968" type="line"/>
      <point x="205.457" y="421.507"/>
      <point x="245.854" y="440.256"/>
      <point x="302.806" y="452.881" type="curve" smooth="yes"/>
      <point x="392.166" y="472.691"/>
      <point x="432.035" y="504.508"/>
      <point x="432.035" y="567.136" type="curve" smooth="yes"/>
      <point x="432.035" y="625"/>
      <point x="398" y="667"/>
      <point x="317.563" y="667" type="curve" smooth="yes"/>
      <point x="223.254" y="667"/>
      <point x="174" y="609.265"/>
      <point x="174" y="490" type="curve" smooth="yes"/>
    </contour>
    <contour>
      <point x="174.117" y="321.286" type="curve"/>
      <point x="174" y="232" type="line" smooth="yes"/>
      <point x="173.861" y="126.031"/>
      <point x="234.788" y="51"/>
      <point x="329.449" y="51" type="curve" smooth="yes"/>
      <point x="415.313" y="51"/>
      <point x="467" y="121.734"/>
      <point x="467" y="225.489" type="curve" smooth="yes"/>
      <point x="467" y="319.552"/>
      <point x="415.006" y="387.823"/>
      <point x="318.497" y="387.823" type="curve" smooth="yes"/>
      <point x="259.447" y="387.823"/>
      <point x="211.027" y="362.186"/>
    </contour>
    <contour>
      <point x="80" y="288" type="curve" smooth="yes"/>
      <point x="80" y="496" type="line" smooth="yes"/>
      <point x="80" y="644.725"/>
      <point x="174.301" y="732"/>
      <point x="327.142" y="732" type="curve" smooth="yes"/>
      <point x="457" y="732"/>
      <point x="526.035" y="669"/>
      <point x="526.035" y="576.823" type="curve" smooth="yes"/>
      <point x="526.035" y="508.619"/>
      <point x="486.694" y="458.006"/>
      <point x="435.773" y="436.823" type="curve"/>
      <point x="517.866" y="407.806"/>
      <point x="568" y="331"/>
      <point x="568" y="244" type="curve" smooth="yes"/>
      <point x="568" y="80.5"/>
      <point x="472.821" y="-12"/>
      <point x="315.444" y="-12" type="curve" smooth="yes"/>
      <point x="159.901" y="-12"/>
      <point x="80" y="86.1245"/>
    </contour>
  </outline>
</glyph>
<glyph name="uni0433.loclBGR" format="2">
  <advance width="523"/>
  <outline>
    <contour>
      <point x="60" y="140" type="curve" smooth="yes"/>
      <point x="60" y="217"/>
      <point x="106" y="264"/>
      <point x="168" y="278" type="curve" smooth="yes"/>
      <point x="201" y="285" type="line"/>
      <point x="263" y="295"/>
      <point x="354" y="310"/>
      <point x="354" y="383" type="curve" smooth="yes"/>
      <point x="354" y="434"/>
      <point x="309" y="449"/>
      <point x="261" y="449" type="curve" smooth="yes"/>
      <point x="195" y="449"/>
      <point x="162" y="421"/>
      <point x="162" y="366" type="curve"/>
      <point x="70" y="366" type="line"/>
      <point x="70" y="461"/>
      <point x="144" y="514"/>
      <point x="262" y="514" type="curve" smooth="yes"/>
      <point x="369" y="514"/>
      <point x="449" y="471"/>
      <point x="449" y="371" type="curve" smooth="yes"/>
      <point x="449" y="297"/>
      <point x="405" y="250"/>
      <point x="344" y="235" type="curve"/>
      <point x="303" y="227" type="line"/>
      <point x="240" y="217"/>
      <point x="155" y="203"/>
      <point x="155" y="141" type="curve" smooth="yes"/>
      <point x="155" y="73"/>
      <point x="205" y="53"/>
      <point x="262" y="53" type="curve" smooth="yes"/>
      <point x="332" y="53"/>
      <point x="371" y="84"/>
      <point x="371" y="146" type="curve"/>
      <point x="463" y="146" type="line"/>
      <point x="463" y="36"/>
      <point x="380" y="-12"/>
      <point x="262" y="-12" type="curve" smooth="yes"/>
      <point x="152" y="-12"/>
      <point x="60" y="30"/>
    </contour>
  </outline>
</glyph>
<glyph name="uni044E.loclBGR" format="2">
  <advance width="761"/>
  <outline>
    <contour>
      <point x="80" y="-2" type="line"/>
      <point x="80" y="720" type="line"/>
      <point x="170" y="720" type="line"/>
      <point x="170" y="294" type="line"/>
      <point x="232" y="294" type="line"/>
      <point x="248" y="435"/>
      <point x="347" y="512"/>
      <point x="475" y="512" type="curve" smooth="yes"/>
      <point x="618" y="512"/>
      <point x="721" y="420"/>
      <point x="721" y="250" type="curve" smooth="yes"/>
      <point x="721" y="79"/>
      <point x="619" y="-16"/>
      <point x="476" y="-16" type="curve" smooth="yes"/>
      <point x="339" y="-16"/>
      <point x="236" y="71"/>
      <point x="230" y="231" type="curve"/>
      <point x="170" y="231" type="line"/>
      <point x="170" y="-2" type="line"/>
    </contour>
    <contour>
      <point x="323" y="250" type="curve" smooth="yes"/>
      <point x="323" y="147"/>
      <point x="375" y="51"/>
      <point x="475" y="51" type="curve" smooth="yes"/>
      <point x="575" y="51"/>
      <point x="627" y="147"/>
      <point x="627" y="250" type="curve" smooth="yes"/>
      <point x="627" y="353"/>
      <point x="575" y="449"/>
      <point x="475" y="449" type="curve" smooth="yes"/>
      <point x="375" y="449"/>
      <point x="323" y="353"/>
    </contour>
  </outline>
</glyph>
